<svg width="115" height="94" viewBox="0 0 115 94" fill="none" xmlns="http://www.w3.org/2000/svg">
<path d="M60.5957 32.5C60.0957 30.5 62.0957 30 63.0957 30.5C64.0957 31 92.0957 47.5 99.5957 55.5C107.096 63.5 85.0957 79.5 79.5957 71.5C74.0957 63.5 61.0957 34.5 60.5957 32.5Z" fill="url(#paint0_linear_275_108)"/>
<path d="M63.0957 21.5C65.0957 20 87.0957 6 91.0957 6C95.0957 6 103.596 24 98.5957 25C93.5957 26 66.5957 24.5 64.0957 24.5C61.5957 24.5 61.0957 23 63.0957 21.5Z" fill="url(#paint1_linear_275_108)"/>
<path d="M65.0957 26.5C67.5957 26 95.0957 26.5 100.596 27.5C106.096 28.5 108.096 54.5 103.096 53C98.0957 51.5 67.3457 31.5 65.0957 30C62.8457 28.5 62.5957 27 65.0957 26.5Z" fill="url(#paint2_linear_275_108)"/>
<path d="M21.5957 49C23.5957 44.5 46.0957 31 48.0957 30C50.0957 29 52.0957 31 51.5957 32.5C51.0957 34 43.5957 60.5 41.0957 63.5C38.5957 66.5 19.5957 53.5 21.5957 49Z" fill="url(#paint3_linear_275_108)"/>
<path d="M53.0957 32.5C54.5957 30.5 57.0957 31 58.0957 32.5C59.0957 34 77.5957 68.5 73.5957 72.5C69.5957 76.5 43.0957 71.7629 44.0957 63.5C45.0957 55.2371 51.5957 34.5 53.0957 32.5Z" fill="url(#paint4_linear_275_108)"/>
<path d="M14.0958 49.5C7.09584 54 0.0957031 61 1.09584 66C55.0958 130 157.337 71.8444 95.0958 1L92.0958 2.5C142.462 61.0374 81.9187 117.542 14.0958 49.5Z" fill="url(#paint5_angular_275_108)"/>
<path fill-rule="evenodd" clip-rule="evenodd" d="M14.0958 49.5C81.9187 117.542 142.462 61.0374 92.0958 2.5L14.0958 49.5ZM58.0957 32.5C57.0957 31 54.5957 30.5 53.0957 32.5C51.5957 34.5 45.0957 55.2371 44.0957 63.5C43.0957 71.7629 69.5957 76.5 73.5957 72.5C77.5957 68.5 59.0957 34 58.0957 32.5ZM48.0957 30C46.0957 31 23.5957 44.5 21.5957 49C19.5957 53.5 38.5957 66.5 41.0957 63.5C43.5957 60.5 51.0957 34 51.5957 32.5C52.0957 31 50.0957 29 48.0957 30ZM63.0957 30.5C62.0957 30 60.0957 30.5 60.5957 32.5C61.0957 34.5 74.0957 63.5 79.5957 71.5C85.0957 79.5 107.096 63.5 99.5957 55.5C92.0957 47.5 64.0957 31 63.0957 30.5ZM100.596 27.5C95.0957 26.5 67.5957 26 65.0957 26.5C62.5957 27 62.8457 28.5 65.0957 30C67.3457 31.5 98.0957 51.5 103.096 53C108.096 54.5 106.096 28.5 100.596 27.5ZM91.0957 6C87.0957 6 65.0957 20 63.0957 21.5C61.0957 23 61.5957 24.5 64.0957 24.5C66.5957 24.5 93.5957 26 98.5957 25C103.596 24 95.0957 6 91.0957 6Z" fill="url(#paint6_radial_275_108)"/>
<path d="M14.0958 49.5C7.09584 54 0.0957031 61 1.09584 66C55.0958 130 157.337 71.8444 95.0958 1L92.0958 2.5M14.0958 49.5C81.9187 117.542 142.462 61.0374 92.0958 2.5M14.0958 49.5L92.0958 2.5M53.0957 32.5C54.5957 30.5 57.0957 31 58.0957 32.5C59.0957 34 77.5957 68.5 73.5957 72.5C69.5957 76.5 43.0957 71.7629 44.0957 63.5C45.0957 55.2371 51.5957 34.5 53.0957 32.5ZM21.5957 49C23.5957 44.5 46.0957 31 48.0957 30C50.0957 29 52.0957 31 51.5957 32.5C51.0957 34 43.5957 60.5 41.0957 63.5C38.5957 66.5 19.5957 53.5 21.5957 49ZM60.5957 32.5C60.0957 30.5 62.0957 30 63.0957 30.5C64.0957 31 92.0957 47.5 99.5957 55.5C107.096 63.5 85.0957 79.5 79.5957 71.5C74.0957 63.5 61.0957 34.5 60.5957 32.5ZM65.0957 26.5C67.5957 26 95.0957 26.5 100.596 27.5C106.096 28.5 108.096 54.5 103.096 53C98.0957 51.5 67.3457 31.5 65.0957 30C62.8457 28.5 62.5957 27 65.0957 26.5ZM63.0957 21.5C65.0957 20 87.0957 6 91.0957 6C95.0957 6 103.596 24 98.5957 25C93.5957 26 66.5957 24.5 64.0957 24.5C61.5957 24.5 61.0957 23 63.0957 21.5Z" stroke="#FFD35C" stroke-width="0.5"/>
<defs>
<linearGradient id="paint0_linear_275_108" x1="55.5" y1="24" x2="85" y2="85.5" gradientUnits="userSpaceOnUse">
<stop stop-color="#FFBF08"/>
<stop offset="1" stop-color="#FE8D01"/>
</linearGradient>
<linearGradient id="paint1_linear_275_108" x1="55.5" y1="24" x2="85" y2="85.5" gradientUnits="userSpaceOnUse">
<stop stop-color="#FFBF08"/>
<stop offset="1" stop-color="#FE8D01"/>
</linearGradient>
<linearGradient id="paint2_linear_275_108" x1="55.5" y1="24" x2="85" y2="85.5" gradientUnits="userSpaceOnUse">
<stop stop-color="#FFBF08"/>
<stop offset="1" stop-color="#FE8D01"/>
</linearGradient>
<linearGradient id="paint3_linear_275_108" x1="55.5" y1="24" x2="85" y2="85.5" gradientUnits="userSpaceOnUse">
<stop stop-color="#FFBF08"/>
<stop offset="1" stop-color="#FE8D01"/>
</linearGradient>
<linearGradient id="paint4_linear_275_108" x1="55.5" y1="24" x2="85" y2="85.5" gradientUnits="userSpaceOnUse">
<stop stop-color="#FFBF08"/>
<stop offset="1" stop-color="#FE8D01"/>
</linearGradient>
<radialGradient id="paint5_angular_275_108" cx="0" cy="0" r="1" gradientUnits="userSpaceOnUse" gradientTransform="translate(38.5 57) rotate(-102.488) scale(76.3053 45.0366)">
<stop stop-color="#DB6000"/>
<stop offset="1" stop-color="#EF891A"/>
</radialGradient>
<radialGradient id="paint6_radial_275_108" cx="0" cy="0" r="1" gradientUnits="userSpaceOnUse" gradientTransform="translate(62 30.5) rotate(49.3987) scale(55.3173 56.7847)">
<stop offset="0.668" stop-color="#EDD275"/>
<stop offset="1" stop-color="#E9C33E"/>
</radialGradient>
</defs>
</svg>
