<svg width="200" height="200" viewBox="0 0 200 200" fill="none" xmlns="http://www.w3.org/2000/svg">
<path d="M103.644 121.018C103.077 118.748 105.347 118.18 106.482 118.748C107.617 119.315 139.398 138.044 147.911 147.124C156.424 156.205 131.453 174.366 125.21 165.285C118.967 156.205 104.212 123.288 103.644 121.018Z" fill="url(#paint0_linear_219_97)"/>
<path d="M106.482 108.532C108.752 106.83 133.723 90.9392 138.263 90.9392C142.804 90.9392 152.451 111.37 146.776 112.505C141.101 113.64 110.455 111.938 107.617 111.938C104.779 111.938 104.212 110.235 106.482 108.532Z" fill="url(#paint1_linear_219_97)"/>
<path d="M108.752 114.208C111.59 113.64 142.804 114.208 149.046 115.343C155.289 116.478 157.559 145.989 151.884 144.287C146.209 142.584 111.306 119.883 108.752 118.18C106.198 116.478 105.914 114.775 108.752 114.208Z" fill="url(#paint2_linear_219_97)"/>
<path d="M59.3772 139.746C61.6473 134.639 87.186 119.315 89.4561 118.18C91.7262 117.045 93.9963 119.315 93.4288 121.018C92.8612 122.721 84.3483 152.8 81.5107 156.205C78.6731 159.61 57.1071 144.854 59.3772 139.746Z" fill="url(#paint3_linear_219_97)"/>
<path d="M95.1313 121.018C96.8339 118.748 99.6715 119.315 100.807 121.018C101.942 122.721 122.94 161.88 118.4 166.42C113.86 170.96 83.7808 165.584 84.9159 156.205C86.0509 146.826 93.4288 123.288 95.1313 121.018Z" fill="url(#paint4_linear_219_97)"/>
<path d="M50.8645 140.314C42.9191 145.422 34.9736 153.367 36.1088 159.042C97.4016 231.686 213.451 165.676 142.804 85.2639L139.399 86.9665C196.567 153.409 127.847 217.545 50.8645 140.314Z" fill="url(#paint5_angular_219_97)"/>
<path fill-rule="evenodd" clip-rule="evenodd" d="M50.8645 140.314C127.847 217.545 196.567 153.409 139.399 86.9665L50.8645 140.314ZM100.807 121.018C99.6715 119.315 96.8339 118.748 95.1313 121.018C93.4288 123.288 86.0509 146.826 84.9159 156.205C83.7808 165.584 113.86 170.96 118.4 166.42C122.94 161.88 101.942 122.721 100.807 121.018ZM89.4561 118.18C87.186 119.315 61.6473 134.639 59.3772 139.746C57.1071 144.854 78.6731 159.61 81.5107 156.205C84.3483 152.8 92.8612 122.721 93.4288 121.018C93.9963 119.315 91.7262 117.045 89.4561 118.18ZM106.482 118.748C105.347 118.18 103.077 118.748 103.644 121.018C104.212 123.288 118.967 156.205 125.21 165.285C131.453 174.366 156.424 156.205 147.911 147.124C139.398 138.044 107.617 119.315 106.482 118.748ZM149.046 115.343C142.804 114.208 111.59 113.64 108.752 114.208C105.914 114.775 106.198 116.478 108.752 118.18C111.306 119.883 146.209 142.584 151.884 144.287C157.559 145.989 155.289 116.478 149.046 115.343ZM138.263 90.9392C133.723 90.9392 108.752 106.83 106.482 108.532C104.212 110.235 104.779 111.938 107.617 111.938C110.455 111.938 141.101 113.64 146.776 112.505C152.451 111.37 142.804 90.9392 138.263 90.9392Z" fill="url(#paint6_radial_219_97)"/>
<path d="M50.8645 140.314C42.9191 145.422 34.9736 153.367 36.1088 159.042C97.4016 231.686 213.451 165.676 142.804 85.2639L139.399 86.9665M50.8645 140.314C127.847 217.545 196.567 153.409 139.399 86.9665M50.8645 140.314L139.399 86.9665M95.1313 121.018C96.8339 118.748 99.6715 119.315 100.807 121.018C101.942 122.721 122.94 161.88 118.4 166.42C113.86 170.96 83.7808 165.584 84.9159 156.205C86.0509 146.826 93.4288 123.288 95.1313 121.018ZM59.3772 139.746C61.6473 134.639 87.186 119.315 89.4561 118.18C91.7262 117.045 93.9963 119.315 93.4288 121.018C92.8612 122.721 84.3483 152.8 81.5107 156.205C78.6731 159.61 57.1071 144.854 59.3772 139.746ZM103.644 121.018C103.077 118.748 105.347 118.18 106.482 118.748C107.617 119.315 139.398 138.044 147.911 147.124C156.424 156.205 131.453 174.366 125.21 165.285C118.967 156.205 104.212 123.288 103.644 121.018ZM108.752 114.208C111.59 113.64 142.804 114.208 149.046 115.343C155.289 116.478 157.559 145.989 151.884 144.287C146.209 142.584 111.306 119.883 108.752 118.18C106.198 116.478 105.914 114.775 108.752 114.208ZM106.482 108.532C108.752 106.83 133.723 90.9392 138.263 90.9392C142.804 90.9392 152.451 111.37 146.776 112.505C141.101 113.64 110.455 111.938 107.617 111.938C104.779 111.938 104.212 110.235 106.482 108.532Z" stroke="#FFD35C" stroke-width="0.5"/>
<path d="M97.3558 79.3246C97.9233 81.5947 95.6532 82.1622 94.5181 81.5947C93.3831 81.0272 61.6016 62.2988 53.0887 53.2184C44.5759 44.138 69.547 25.9771 75.7898 35.0576C82.0326 44.138 96.7882 77.0545 97.3558 79.3246Z" fill="url(#paint7_linear_219_97)"/>
<path d="M94.5181 91.8102C92.248 93.5127 67.2769 109.403 62.7367 109.403C58.1965 109.403 48.5485 88.9725 54.2238 87.8375C59.8991 86.7024 90.5455 88.405 93.3831 88.405C96.2207 88.405 96.7882 90.1076 94.5181 91.8102Z" fill="url(#paint8_linear_219_97)"/>
<path d="M92.248 86.1349C89.4104 86.7024 58.1965 86.1349 51.9537 84.9999C45.7109 83.8648 43.4408 54.3534 49.1161 56.056C54.7913 57.7586 89.6942 80.4596 92.248 82.1622C94.8019 83.8648 95.0857 85.5674 92.248 86.1349Z" fill="url(#paint9_linear_219_97)"/>
<path d="M141.623 60.5962C139.353 65.704 113.814 81.0272 111.544 82.1622C109.274 83.2973 107.004 81.0272 107.571 79.3246C108.139 77.622 116.652 47.5431 119.489 44.138C122.327 40.7328 143.893 55.4885 141.623 60.5962Z" fill="url(#paint10_linear_219_97)"/>
<path d="M105.869 79.3246C104.166 81.5947 101.328 81.0272 100.193 79.3246C99.0584 77.622 78.0599 38.4627 82.6001 33.9225C87.1403 29.3823 117.219 34.7591 116.084 44.138C114.949 53.5169 107.571 77.0545 105.869 79.3246Z" fill="url(#paint11_linear_219_97)"/>
<path d="M150.136 60.0287C158.081 54.921 166.026 46.9756 164.891 41.3003C103.598 -31.343 -12.451 34.6666 58.1963 115.079L61.6015 113.376C4.43323 46.9332 73.153 -17.2019 150.136 60.0287Z" fill="url(#paint12_angular_219_97)"/>
<path fill-rule="evenodd" clip-rule="evenodd" d="M150.136 60.0287C73.153 -17.2019 4.43323 46.9332 61.6015 113.376L150.136 60.0287ZM100.193 79.3246C101.328 81.0272 104.166 81.5947 105.869 79.3246C107.571 77.0545 114.949 53.5169 116.084 44.138C117.219 34.7591 87.1403 29.3823 82.6001 33.9225C78.0599 38.4627 99.0584 77.622 100.193 79.3246ZM111.544 82.1622C113.814 81.0272 139.353 65.704 141.623 60.5962C143.893 55.4885 122.327 40.7328 119.489 44.138C116.652 47.5431 108.139 77.622 107.571 79.3246C107.004 81.0272 109.274 83.2973 111.544 82.1622ZM94.5181 81.5947C95.6532 82.1622 97.9233 81.5947 97.3558 79.3246C96.7882 77.0545 82.0326 44.138 75.7898 35.0576C69.547 25.9771 44.5759 44.138 53.0887 53.2184C61.6016 62.2988 93.3831 81.0272 94.5181 81.5947ZM51.9537 84.9999C58.1965 86.1349 89.4104 86.7024 92.248 86.1349C95.0857 85.5674 94.8019 83.8648 92.248 82.1622C89.6942 80.4596 54.7913 57.7586 49.1161 56.056C43.4408 54.3534 45.7109 83.8648 51.9537 84.9999ZM62.7367 109.403C67.2769 109.403 92.248 93.5127 94.5181 91.8102C96.7882 90.1076 96.2207 88.405 93.3831 88.405C90.5455 88.405 59.8991 86.7024 54.2238 87.8375C48.5485 88.9725 58.1965 109.403 62.7367 109.403Z" fill="url(#paint13_radial_219_97)"/>
<path d="M150.136 60.0287C158.081 54.921 166.026 46.9756 164.891 41.3003C103.598 -31.343 -12.451 34.6666 58.1963 115.079L61.6015 113.376M150.136 60.0287C73.153 -17.2019 4.43323 46.9332 61.6015 113.376M150.136 60.0287L61.6015 113.376M105.869 79.3246C104.166 81.5947 101.328 81.0272 100.193 79.3246C99.0584 77.622 78.0599 38.4627 82.6001 33.9225C87.1403 29.3823 117.219 34.7591 116.084 44.138C114.949 53.5169 107.571 77.0545 105.869 79.3246ZM141.623 60.5962C139.353 65.704 113.814 81.0272 111.544 82.1622C109.274 83.2973 107.004 81.0272 107.571 79.3246C108.139 77.622 116.652 47.5431 119.489 44.138C122.327 40.7328 143.893 55.4885 141.623 60.5962ZM97.3558 79.3246C97.9233 81.5947 95.6532 82.1622 94.5181 81.5947C93.3831 81.0272 61.6016 62.2988 53.0887 53.2184C44.5759 44.138 69.547 25.9771 75.7898 35.0576C82.0326 44.138 96.7882 77.0545 97.3558 79.3246ZM92.248 86.1349C89.4104 86.7024 58.1965 86.1349 51.9537 84.9999C45.7109 83.8648 43.4408 54.3534 49.1161 56.056C54.7913 57.7586 89.6942 80.4596 92.248 82.1622C94.8019 83.8648 95.0857 85.5674 92.248 86.1349ZM94.5181 91.8102C92.248 93.5127 67.2769 109.403 62.7367 109.403C58.1965 109.403 48.5485 88.9725 54.2238 87.8375C59.8991 86.7024 90.5455 88.405 93.3831 88.405C96.2207 88.405 96.7882 90.1076 94.5181 91.8102Z" stroke="#FFD35C" stroke-width="0.5"/>
<defs>
<linearGradient id="paint0_linear_219_97" x1="97.8603" y1="111.37" x2="131.344" y2="181.176" gradientUnits="userSpaceOnUse">
<stop stop-color="#FFBF08"/>
<stop offset="1" stop-color="#FE8D01"/>
</linearGradient>
<linearGradient id="paint1_linear_219_97" x1="97.8603" y1="111.37" x2="131.344" y2="181.176" gradientUnits="userSpaceOnUse">
<stop stop-color="#FFBF08"/>
<stop offset="1" stop-color="#FE8D01"/>
</linearGradient>
<linearGradient id="paint2_linear_219_97" x1="97.8603" y1="111.37" x2="131.344" y2="181.176" gradientUnits="userSpaceOnUse">
<stop stop-color="#FFBF08"/>
<stop offset="1" stop-color="#FE8D01"/>
</linearGradient>
<linearGradient id="paint3_linear_219_97" x1="97.8603" y1="111.37" x2="131.344" y2="181.176" gradientUnits="userSpaceOnUse">
<stop stop-color="#FFBF08"/>
<stop offset="1" stop-color="#FE8D01"/>
</linearGradient>
<linearGradient id="paint4_linear_219_97" x1="97.8603" y1="111.37" x2="131.344" y2="181.176" gradientUnits="userSpaceOnUse">
<stop stop-color="#FFBF08"/>
<stop offset="1" stop-color="#FE8D01"/>
</linearGradient>
<radialGradient id="paint5_angular_219_97" cx="0" cy="0" r="1" gradientUnits="userSpaceOnUse" gradientTransform="translate(78.5644 148.827) rotate(-102.488) scale(86.6105 51.1189)">
<stop stop-color="#DB6000"/>
<stop offset="1" stop-color="#EF891A"/>
</radialGradient>
<radialGradient id="paint6_radial_219_97" cx="0" cy="0" r="1" gradientUnits="userSpaceOnUse" gradientTransform="translate(105.238 118.748) rotate(49.3987) scale(62.788 64.4536)">
<stop offset="0.668" stop-color="#EDD275"/>
<stop offset="1" stop-color="#E9C33E"/>
</radialGradient>
<linearGradient id="paint7_linear_219_97" x1="103.14" y1="88.9725" x2="69.6556" y2="19.1668" gradientUnits="userSpaceOnUse">
<stop stop-color="#FFBF08"/>
<stop offset="1" stop-color="#FE8D01"/>
</linearGradient>
<linearGradient id="paint8_linear_219_97" x1="103.14" y1="88.9725" x2="69.6556" y2="19.1668" gradientUnits="userSpaceOnUse">
<stop stop-color="#FFBF08"/>
<stop offset="1" stop-color="#FE8D01"/>
</linearGradient>
<linearGradient id="paint9_linear_219_97" x1="103.14" y1="88.9725" x2="69.6556" y2="19.1668" gradientUnits="userSpaceOnUse">
<stop stop-color="#FFBF08"/>
<stop offset="1" stop-color="#FE8D01"/>
</linearGradient>
<linearGradient id="paint10_linear_219_97" x1="103.14" y1="88.9725" x2="69.6556" y2="19.1668" gradientUnits="userSpaceOnUse">
<stop stop-color="#FFBF08"/>
<stop offset="1" stop-color="#FE8D01"/>
</linearGradient>
<linearGradient id="paint11_linear_219_97" x1="103.14" y1="88.9725" x2="69.6556" y2="19.1668" gradientUnits="userSpaceOnUse">
<stop stop-color="#FFBF08"/>
<stop offset="1" stop-color="#FE8D01"/>
</linearGradient>
<radialGradient id="paint12_angular_219_97" cx="0" cy="0" r="1" gradientUnits="userSpaceOnUse" gradientTransform="translate(122.436 51.5158) rotate(77.5119) scale(86.6105 51.1189)">
<stop stop-color="#DB6000"/>
<stop offset="1" stop-color="#EF891A"/>
</radialGradient>
<radialGradient id="paint13_radial_219_97" cx="0" cy="0" r="1" gradientUnits="userSpaceOnUse" gradientTransform="translate(95.7618 81.5947) rotate(-130.601) scale(62.788 64.4536)">
<stop offset="0.668" stop-color="#EDD275"/>
<stop offset="1" stop-color="#E9C33E"/>
</radialGradient>
</defs>
</svg>
