<svg width="36" height="52" viewBox="0 0 36 52" fill="none" xmlns="http://www.w3.org/2000/svg">
<circle cx="17.5958" cy="33.9042" r="17.5958" fill="url(#paint0_linear_591_2892)"/>
<path d="M18.8276 13.493C18.0539 4.07704 21.6514 2.64111 29.0332 1C29.8814 4.89303 28.5607 7.4428 18.8276 13.493Z" fill="url(#paint1_linear_591_2892)"/>
<path d="M15.4844 13.493C17.3819 10.508 15.9726 8.85383 10.9095 5.92683C10.8926 9.3203 11.5058 11.0706 15.4844 13.493Z" fill="url(#paint2_linear_591_2892)"/>
<path d="M18.8276 13.493C18.0539 4.07704 21.6514 2.64111 29.0332 1C29.8814 4.89303 28.5607 7.4428 18.8276 13.493Z" stroke="#43921F" stroke-width="0.351916"/>
<path d="M15.4844 13.493C17.3819 10.508 15.9726 8.85383 10.9095 5.92683C10.8926 9.3203 11.5058 11.0706 15.4844 13.493Z" stroke="#43921F" stroke-width="0.351916"/>
<defs>
<linearGradient id="paint0_linear_591_2892" x1="17.5958" y1="16.3083" x2="17.5958" y2="51.5" gradientUnits="userSpaceOnUse">
<stop stop-color="#FEAA05"/>
<stop offset="1" stop-color="#DB6000"/>
</linearGradient>
<linearGradient id="paint1_linear_591_2892" x1="23.986" y1="1" x2="23.986" y2="13.493" gradientUnits="userSpaceOnUse">
<stop stop-color="#7DD421"/>
<stop offset="1" stop-color="#346416"/>
</linearGradient>
<linearGradient id="paint2_linear_591_2892" x1="23.986" y1="1" x2="23.986" y2="13.493" gradientUnits="userSpaceOnUse">
<stop stop-color="#7DD421"/>
<stop offset="1" stop-color="#346416"/>
</linearGradient>
</defs>
</svg>
